<svg width="28" height="28" viewBox="0 0 28 28" fill="none" xmlns="http://www.w3.org/2000/svg">
<g filter="url(#filter0_d_13_7)">
<path fill-rule="evenodd" clip-rule="evenodd" d="M6.54591 16.6556C6.05923 17.326 6.20817 18.264 6.87856 18.7507C7.54896 19.2373 8.48696 19.0884 8.97364 18.418L12.2047 13.9672L16.6556 17.1983C17.326 17.685 18.264 17.536 18.7507 16.8656C19.2373 16.1952 19.0884 15.2572 18.418 14.7705L13.9672 11.5394L17.1983 7.08861C17.685 6.41821 17.536 5.48021 16.8656 4.99353C16.1952 4.50685 15.2572 4.65579 14.7705 5.32618L11.5394 9.77702L7.08861 6.54591C6.41821 6.05923 5.48021 6.20817 4.99353 6.87856C4.50685 7.54896 4.65579 8.48696 5.32618 8.97364L9.77702 12.2047L6.54591 16.6556Z" fill="url(#paint0_linear_13_7)"/>
</g>
<defs>
<filter id="filter0_d_13_7" x="0.707291" y="0.707275" width="26.3296" height="26.3296" filterUnits="userSpaceOnUse" color-interpolation-filters="sRGB">
<feFlood flood-opacity="0" result="BackgroundImageFix"/>
<feColorMatrix in="SourceAlpha" type="matrix" values="0 0 0 0 0 0 0 0 0 0 0 0 0 0 0 0 0 0 127 0" result="hardAlpha"/>
<feOffset dx="2" dy="2"/>
<feGaussianBlur stdDeviation="3"/>
<feComposite in2="hardAlpha" operator="out"/>
<feColorMatrix type="matrix" values="0 0 0 0 0.379167 0 0 0 0 0.88825 0 0 0 0 1 0 0 0 0.6 0"/>
<feBlend mode="normal" in2="BackgroundImageFix" result="effect1_dropShadow_13_7"/>
<feBlend mode="normal" in="SourceGraphic" in2="effect1_dropShadow_13_7" result="shape"/>
</filter>
<linearGradient id="paint0_linear_13_7" x1="16.8656" y1="4.99353" x2="6.87856" y2="18.7507" gradientUnits="userSpaceOnUse">
<stop stop-color="#1BD6E5"/>
<stop offset="1" stop-color="#46AEF7"/>
</linearGradient>
</defs>
</svg>
