<svg width="29" height="45" viewBox="0 0 29 45" fill="none" xmlns="http://www.w3.org/2000/svg">
<g filter="url(#filter0_d_13_27)">
<path fill-rule="evenodd" clip-rule="evenodd" d="M11.0286 19.9279L11.8949 20.0148C12.7612 20.1017 14.4938 20.2755 14.6151 21.8178C14.6717 22.5376 14.3774 23.5554 14.0831 24.5732L14.0831 24.5732C13.7468 25.7364 13.4104 26.8996 13.5979 27.6179C13.8142 28.4468 14.7278 28.6833 15.6415 28.9198C16.2125 29.0676 16.7835 29.2155 17.1843 29.5079C18.2263 30.2682 18.1175 32.0061 18.063 32.875L18.0086 33.7439L17.3289 34.3213L17.3833 33.4524C17.4377 32.5834 17.5466 30.8456 16.5046 30.0853C16.1038 29.7928 15.5328 29.645 14.9618 29.4972C14.0481 29.2606 13.1345 29.0241 12.9182 28.1953C12.7307 27.477 13.067 26.3138 13.4034 25.1506C13.6977 24.1328 13.992 23.115 13.9354 22.3952C13.8141 20.8529 12.0815 20.6791 11.2152 20.5922L10.3489 20.5053L2.74214 26.9661L2.74212 26.9661L11.0286 19.9279ZM10.3454 20.5082L9.47912 20.4213C8.61284 20.3344 6.88027 20.1606 6.75897 18.6182C6.70237 17.8985 6.99665 16.8807 7.29094 15.8629L7.29095 15.8629C7.62728 14.6997 7.96362 13.5365 7.77616 12.8181C7.55987 11.9893 6.64622 11.7528 5.73257 11.5163C5.16154 11.3684 4.59051 11.2206 4.18973 10.9282C3.1477 10.1679 3.25659 8.43001 3.31103 7.56108L3.36547 6.69215L8.88982 2L4.04516 6.11486L3.99072 6.98378C3.93628 7.85271 3.8274 9.59057 4.86942 10.3509C5.2702 10.6433 5.84123 10.7911 6.41226 10.939C7.32591 11.1755 8.23956 11.412 8.45586 12.2408C8.64331 12.9592 8.30698 14.1224 7.97064 15.2856L7.97064 15.2856C7.67635 16.3034 7.38206 17.3212 7.43866 18.0409C7.55996 19.5833 9.29253 19.7571 10.1588 19.844L11.0251 19.9309L10.3454 20.5082Z" fill="url(#paint0_linear_13_27)"/>
</g>
<defs>
<filter id="filter0_d_13_27" x="0.742119" y="0" width="27.3532" height="44.3213" filterUnits="userSpaceOnUse" color-interpolation-filters="sRGB">
<feFlood flood-opacity="0" result="BackgroundImageFix"/>
<feColorMatrix in="SourceAlpha" type="matrix" values="0 0 0 0 0 0 0 0 0 0 0 0 0 0 0 0 0 0 127 0" result="hardAlpha"/>
<feOffset dx="4" dy="4"/>
<feGaussianBlur stdDeviation="3"/>
<feComposite in2="hardAlpha" operator="out"/>
<feColorMatrix type="matrix" values="0 0 0 0 1 0 0 0 0 0.817757 0 0 0 0 0 0 0 0 1 0"/>
<feBlend mode="normal" in2="BackgroundImageFix" result="effect1_dropShadow_13_27"/>
<feBlend mode="normal" in="SourceGraphic" in2="effect1_dropShadow_13_27" result="shape"/>
</filter>
<linearGradient id="paint0_linear_13_27" x1="10.8234" y1="38.4924" x2="14.0665" y2="1.36113" gradientUnits="userSpaceOnUse">
<stop stop-color="#FF524E"/>
<stop offset="1" stop-color="#F9D223"/>
</linearGradient>
</defs>
</svg>
