<svg width="28" height="28" viewBox="0 0 28 28" fill="none" xmlns="http://www.w3.org/2000/svg">
<g filter="url(#filter0_d_13_2)">
<path d="M18 12C18 15.3137 15.3137 18 12 18C8.68629 18 6 15.3137 6 12C6 8.68629 8.68629 6 12 6C15.3137 6 18 8.68629 18 12ZM6.81368 12C6.81368 14.8643 9.13568 17.1863 12 17.1863C14.8643 17.1863 17.1863 14.8643 17.1863 12C17.1863 9.13568 14.8643 6.81368 12 6.81368C9.13568 6.81368 6.81368 9.13568 6.81368 12Z" fill="url(#paint0_linear_13_2)"/>
</g>
<defs>
<filter id="filter0_d_13_2" x="0" y="0" width="28" height="28" filterUnits="userSpaceOnUse" color-interpolation-filters="sRGB">
<feFlood flood-opacity="0" result="BackgroundImageFix"/>
<feColorMatrix in="SourceAlpha" type="matrix" values="0 0 0 0 0 0 0 0 0 0 0 0 0 0 0 0 0 0 127 0" result="hardAlpha"/>
<feOffset dx="2" dy="2"/>
<feGaussianBlur stdDeviation="4"/>
<feComposite in2="hardAlpha" operator="out"/>
<feColorMatrix type="matrix" values="0 0 0 0 0.447369 0 0 0 0 0 0 0 0 0 1 0 0 0 1 0"/>
<feBlend mode="normal" in2="BackgroundImageFix" result="effect1_dropShadow_13_2"/>
<feBlend mode="normal" in="SourceGraphic" in2="effect1_dropShadow_13_2" result="shape"/>
</filter>
<linearGradient id="paint0_linear_13_2" x1="12" y1="6" x2="12" y2="18" gradientUnits="userSpaceOnUse">
<stop stop-color="#6912CC"/>
<stop offset="0.989583" stop-color="#2773FB"/>
</linearGradient>
</defs>
</svg>
