<svg width="17" height="17" viewBox="0 0 17 17" fill="none" xmlns="http://www.w3.org/2000/svg">
<g filter="url(#filter0_d_13_9)">
<path d="M6.15165 10.675C3.85875 10.4698 2.16639 8.44459 2.37167 6.15168C2.57694 3.85878 4.60212 2.16642 6.89502 2.37169C9.18793 2.57697 10.8803 4.60214 10.675 6.89505C10.4697 9.18795 8.44456 10.8803 6.15165 10.675ZM6.85806 2.78457C4.79318 2.5997 2.9694 4.12376 2.78454 6.18864C2.59968 8.25353 4.12373 10.0773 6.18862 10.2622C8.2535 10.447 10.0773 8.92297 10.2621 6.85809C10.447 4.7932 8.92294 2.96943 6.85806 2.78457Z" fill="url(#paint0_linear_13_9)"/>
</g>
<defs>
<filter id="filter0_d_13_9" x="0.354797" y="0.354828" width="16.3371" height="16.3371" filterUnits="userSpaceOnUse" color-interpolation-filters="sRGB">
<feFlood flood-opacity="0" result="BackgroundImageFix"/>
<feColorMatrix in="SourceAlpha" type="matrix" values="0 0 0 0 0 0 0 0 0 0 0 0 0 0 0 0 0 0 127 0" result="hardAlpha"/>
<feOffset dx="2" dy="2"/>
<feGaussianBlur stdDeviation="2"/>
<feComposite in2="hardAlpha" operator="out"/>
<feColorMatrix type="matrix" values="0 0 0 0 0 0 0 0 0 0 0 0 0 0 0 0 0 0 0.25 0"/>
<feBlend mode="normal" in2="BackgroundImageFix" result="effect1_dropShadow_13_9"/>
<feBlend mode="normal" in="SourceGraphic" in2="effect1_dropShadow_13_9" result="shape"/>
</filter>
<linearGradient id="paint0_linear_13_9" x1="10.675" y1="6.89505" x2="2.37167" y2="6.15168" gradientUnits="userSpaceOnUse">
<stop stop-color="#38EBBB"/>
<stop offset="0.989583" stop-color="#2773FB"/>
</linearGradient>
</defs>
</svg>
